<svg xmlns="http://www.w3.org/2000/svg" viewBox="0 0 729 151" width="729" height="151">

    <style>
        .text { 
            font-family: -apple-system, BlinkMacSystemFont, "Segoe UI", Helvetica, Arial, sans-serif; 
            font-size: 11px; 
            fill: #8b949e; 
        }
        .cell { 
            animation: slideDown 0.6s ease-out forwards; 
            opacity: 0; 
        }
        @keyframes slideDown {
            0% { opacity: 0; transform: translateY(-10px); }
            100% { opacity: 1; transform: translateY(0); }
        }
    </style>
    
  <rect x="20" y="20" width="10" height="10" rx="2" fill="#161b22" class="cell" style="animation-delay: 0.000s;" />
  <rect x="20" y="33" width="10" height="10" rx="2" fill="#161b22" class="cell" style="animation-delay: 0.015s;" />
  <rect x="20" y="46" width="10" height="10" rx="2" fill="#161b22" class="cell" style="animation-delay: 0.030s;" />
  <rect x="20" y="59" width="10" height="10" rx="2" fill="#161b22" class="cell" style="animation-delay: 0.045s;" />
  <rect x="20" y="72" width="10" height="10" rx="2" fill="#161b22" class="cell" style="animation-delay: 0.060s;" />
  <rect x="20" y="85" width="10" height="10" rx="2" fill="#161b22" class="cell" style="animation-delay: 0.075s;" />
  <rect x="20" y="98" width="10" height="10" rx="2" fill="#161b22" class="cell" style="animation-delay: 0.090s;" />
  <rect x="33" y="20" width="10" height="10" rx="2" fill="#161b22" class="cell" style="animation-delay: 0.020s;" />
  <rect x="33" y="33" width="10" height="10" rx="2" fill="#161b22" class="cell" style="animation-delay: 0.035s;" />
  <rect x="33" y="46" width="10" height="10" rx="2" fill="#161b22" class="cell" style="animation-delay: 0.050s;" />
  <rect x="33" y="59" width="10" height="10" rx="2" fill="#161b22" class="cell" style="animation-delay: 0.065s;" />
  <rect x="33" y="72" width="10" height="10" rx="2" fill="#161b22" class="cell" style="animation-delay: 0.080s;" />
  <rect x="33" y="85" width="10" height="10" rx="2" fill="#161b22" class="cell" style="animation-delay: 0.095s;" />
  <rect x="33" y="98" width="10" height="10" rx="2" fill="#161b22" class="cell" style="animation-delay: 0.110s;" />
  <rect x="46" y="20" width="10" height="10" rx="2" fill="#161b22" class="cell" style="animation-delay: 0.040s;" />
  <rect x="46" y="33" width="10" height="10" rx="2" fill="#161b22" class="cell" style="animation-delay: 0.055s;" />
  <rect x="46" y="46" width="10" height="10" rx="2" fill="#161b22" class="cell" style="animation-delay: 0.070s;" />
  <rect x="46" y="59" width="10" height="10" rx="2" fill="#161b22" class="cell" style="animation-delay: 0.085s;" />
  <rect x="46" y="72" width="10" height="10" rx="2" fill="#161b22" class="cell" style="animation-delay: 0.100s;" />
  <rect x="46" y="85" width="10" height="10" rx="2" fill="#161b22" class="cell" style="animation-delay: 0.115s;" />
  <rect x="46" y="98" width="10" height="10" rx="2" fill="#161b22" class="cell" style="animation-delay: 0.130s;" />
  <rect x="59" y="20" width="10" height="10" rx="2" fill="#161b22" class="cell" style="animation-delay: 0.060s;" />
  <rect x="59" y="33" width="10" height="10" rx="2" fill="#161b22" class="cell" style="animation-delay: 0.075s;" />
  <rect x="59" y="46" width="10" height="10" rx="2" fill="#161b22" class="cell" style="animation-delay: 0.090s;" />
  <rect x="59" y="59" width="10" height="10" rx="2" fill="#161b22" class="cell" style="animation-delay: 0.105s;" />
  <rect x="59" y="72" width="10" height="10" rx="2" fill="#161b22" class="cell" style="animation-delay: 0.120s;" />
  <rect x="59" y="85" width="10" height="10" rx="2" fill="#161b22" class="cell" style="animation-delay: 0.135s;" />
  <rect x="59" y="98" width="10" height="10" rx="2" fill="#161b22" class="cell" style="animation-delay: 0.150s;" />
  <rect x="72" y="20" width="10" height="10" rx="2" fill="#161b22" class="cell" style="animation-delay: 0.080s;" />
  <rect x="72" y="33" width="10" height="10" rx="2" fill="#161b22" class="cell" style="animation-delay: 0.095s;" />
  <rect x="72" y="46" width="10" height="10" rx="2" fill="#161b22" class="cell" style="animation-delay: 0.110s;" />
  <rect x="72" y="59" width="10" height="10" rx="2" fill="#161b22" class="cell" style="animation-delay: 0.125s;" />
  <rect x="72" y="72" width="10" height="10" rx="2" fill="#161b22" class="cell" style="animation-delay: 0.140s;" />
  <rect x="72" y="85" width="10" height="10" rx="2" fill="#161b22" class="cell" style="animation-delay: 0.155s;" />
  <rect x="72" y="98" width="10" height="10" rx="2" fill="#161b22" class="cell" style="animation-delay: 0.170s;" />
  <rect x="85" y="20" width="10" height="10" rx="2" fill="#161b22" class="cell" style="animation-delay: 0.100s;" />
  <rect x="85" y="33" width="10" height="10" rx="2" fill="#161b22" class="cell" style="animation-delay: 0.115s;" />
  <rect x="85" y="46" width="10" height="10" rx="2" fill="#161b22" class="cell" style="animation-delay: 0.130s;" />
  <rect x="85" y="59" width="10" height="10" rx="2" fill="#161b22" class="cell" style="animation-delay: 0.145s;" />
  <rect x="85" y="72" width="10" height="10" rx="2" fill="#161b22" class="cell" style="animation-delay: 0.160s;" />
  <rect x="85" y="85" width="10" height="10" rx="2" fill="#161b22" class="cell" style="animation-delay: 0.175s;" />
  <rect x="85" y="98" width="10" height="10" rx="2" fill="#161b22" class="cell" style="animation-delay: 0.190s;" />
  <rect x="98" y="20" width="10" height="10" rx="2" fill="#161b22" class="cell" style="animation-delay: 0.120s;" />
  <rect x="98" y="33" width="10" height="10" rx="2" fill="#161b22" class="cell" style="animation-delay: 0.135s;" />
  <rect x="98" y="46" width="10" height="10" rx="2" fill="#161b22" class="cell" style="animation-delay: 0.150s;" />
  <rect x="98" y="59" width="10" height="10" rx="2" fill="#161b22" class="cell" style="animation-delay: 0.165s;" />
  <rect x="98" y="72" width="10" height="10" rx="2" fill="#161b22" class="cell" style="animation-delay: 0.180s;" />
  <rect x="98" y="85" width="10" height="10" rx="2" fill="#161b22" class="cell" style="animation-delay: 0.195s;" />
  <rect x="98" y="98" width="10" height="10" rx="2" fill="#161b22" class="cell" style="animation-delay: 0.210s;" />
  <rect x="111" y="20" width="10" height="10" rx="2" fill="#161b22" class="cell" style="animation-delay: 0.140s;" />
  <rect x="111" y="33" width="10" height="10" rx="2" fill="#161b22" class="cell" style="animation-delay: 0.155s;" />
  <rect x="111" y="46" width="10" height="10" rx="2" fill="#161b22" class="cell" style="animation-delay: 0.170s;" />
  <rect x="111" y="59" width="10" height="10" rx="2" fill="#161b22" class="cell" style="animation-delay: 0.185s;" />
  <rect x="111" y="72" width="10" height="10" rx="2" fill="#161b22" class="cell" style="animation-delay: 0.200s;" />
  <rect x="111" y="85" width="10" height="10" rx="2" fill="#161b22" class="cell" style="animation-delay: 0.215s;" />
  <rect x="111" y="98" width="10" height="10" rx="2" fill="#161b22" class="cell" style="animation-delay: 0.230s;" />
  <rect x="124" y="20" width="10" height="10" rx="2" fill="#161b22" class="cell" style="animation-delay: 0.160s;" />
  <rect x="124" y="33" width="10" height="10" rx="2" fill="#161b22" class="cell" style="animation-delay: 0.175s;" />
  <rect x="124" y="46" width="10" height="10" rx="2" fill="#161b22" class="cell" style="animation-delay: 0.190s;" />
  <rect x="124" y="59" width="10" height="10" rx="2" fill="#161b22" class="cell" style="animation-delay: 0.205s;" />
  <rect x="124" y="72" width="10" height="10" rx="2" fill="#161b22" class="cell" style="animation-delay: 0.220s;" />
  <rect x="124" y="85" width="10" height="10" rx="2" fill="#161b22" class="cell" style="animation-delay: 0.235s;" />
  <rect x="124" y="98" width="10" height="10" rx="2" fill="#161b22" class="cell" style="animation-delay: 0.250s;" />
  <rect x="137" y="20" width="10" height="10" rx="2" fill="#161b22" class="cell" style="animation-delay: 0.180s;" />
  <rect x="137" y="33" width="10" height="10" rx="2" fill="#161b22" class="cell" style="animation-delay: 0.195s;" />
  <rect x="137" y="46" width="10" height="10" rx="2" fill="#161b22" class="cell" style="animation-delay: 0.210s;" />
  <rect x="137" y="59" width="10" height="10" rx="2" fill="#161b22" class="cell" style="animation-delay: 0.225s;" />
  <rect x="137" y="72" width="10" height="10" rx="2" fill="#161b22" class="cell" style="animation-delay: 0.240s;" />
  <rect x="137" y="85" width="10" height="10" rx="2" fill="#161b22" class="cell" style="animation-delay: 0.255s;" />
  <rect x="137" y="98" width="10" height="10" rx="2" fill="#161b22" class="cell" style="animation-delay: 0.270s;" />
  <rect x="150" y="20" width="10" height="10" rx="2" fill="#161b22" class="cell" style="animation-delay: 0.200s;" />
  <rect x="150" y="33" width="10" height="10" rx="2" fill="#161b22" class="cell" style="animation-delay: 0.215s;" />
  <rect x="150" y="46" width="10" height="10" rx="2" fill="#161b22" class="cell" style="animation-delay: 0.230s;" />
  <rect x="150" y="59" width="10" height="10" rx="2" fill="#161b22" class="cell" style="animation-delay: 0.245s;" />
  <rect x="150" y="72" width="10" height="10" rx="2" fill="#161b22" class="cell" style="animation-delay: 0.260s;" />
  <rect x="150" y="85" width="10" height="10" rx="2" fill="#161b22" class="cell" style="animation-delay: 0.275s;" />
  <rect x="150" y="98" width="10" height="10" rx="2" fill="#161b22" class="cell" style="animation-delay: 0.290s;" />
  <rect x="163" y="20" width="10" height="10" rx="2" fill="#161b22" class="cell" style="animation-delay: 0.220s;" />
  <rect x="163" y="33" width="10" height="10" rx="2" fill="#161b22" class="cell" style="animation-delay: 0.235s;" />
  <rect x="163" y="46" width="10" height="10" rx="2" fill="#161b22" class="cell" style="animation-delay: 0.250s;" />
  <rect x="163" y="59" width="10" height="10" rx="2" fill="#161b22" class="cell" style="animation-delay: 0.265s;" />
  <rect x="163" y="72" width="10" height="10" rx="2" fill="#161b22" class="cell" style="animation-delay: 0.280s;" />
  <rect x="163" y="85" width="10" height="10" rx="2" fill="#161b22" class="cell" style="animation-delay: 0.295s;" />
  <rect x="163" y="98" width="10" height="10" rx="2" fill="#161b22" class="cell" style="animation-delay: 0.310s;" />
  <rect x="176" y="20" width="10" height="10" rx="2" fill="#161b22" class="cell" style="animation-delay: 0.240s;" />
  <rect x="176" y="33" width="10" height="10" rx="2" fill="#161b22" class="cell" style="animation-delay: 0.255s;" />
  <rect x="176" y="46" width="10" height="10" rx="2" fill="#161b22" class="cell" style="animation-delay: 0.270s;" />
  <rect x="176" y="59" width="10" height="10" rx="2" fill="#161b22" class="cell" style="animation-delay: 0.285s;" />
  <rect x="176" y="72" width="10" height="10" rx="2" fill="#161b22" class="cell" style="animation-delay: 0.300s;" />
  <rect x="176" y="85" width="10" height="10" rx="2" fill="#161b22" class="cell" style="animation-delay: 0.315s;" />
  <rect x="176" y="98" width="10" height="10" rx="2" fill="#161b22" class="cell" style="animation-delay: 0.330s;" />
  <rect x="189" y="20" width="10" height="10" rx="2" fill="#161b22" class="cell" style="animation-delay: 0.260s;" />
  <rect x="189" y="33" width="10" height="10" rx="2" fill="#161b22" class="cell" style="animation-delay: 0.275s;" />
  <rect x="189" y="46" width="10" height="10" rx="2" fill="#161b22" class="cell" style="animation-delay: 0.290s;" />
  <rect x="189" y="59" width="10" height="10" rx="2" fill="#161b22" class="cell" style="animation-delay: 0.305s;" />
  <rect x="189" y="72" width="10" height="10" rx="2" fill="#161b22" class="cell" style="animation-delay: 0.320s;" />
  <rect x="189" y="85" width="10" height="10" rx="2" fill="#161b22" class="cell" style="animation-delay: 0.335s;" />
  <rect x="189" y="98" width="10" height="10" rx="2" fill="#161b22" class="cell" style="animation-delay: 0.350s;" />
  <rect x="202" y="20" width="10" height="10" rx="2" fill="#161b22" class="cell" style="animation-delay: 0.280s;" />
  <rect x="202" y="33" width="10" height="10" rx="2" fill="#161b22" class="cell" style="animation-delay: 0.295s;" />
  <rect x="202" y="46" width="10" height="10" rx="2" fill="#161b22" class="cell" style="animation-delay: 0.310s;" />
  <rect x="202" y="59" width="10" height="10" rx="2" fill="#161b22" class="cell" style="animation-delay: 0.325s;" />
  <rect x="202" y="72" width="10" height="10" rx="2" fill="#161b22" class="cell" style="animation-delay: 0.340s;" />
  <rect x="202" y="85" width="10" height="10" rx="2" fill="#161b22" class="cell" style="animation-delay: 0.355s;" />
  <rect x="202" y="98" width="10" height="10" rx="2" fill="#161b22" class="cell" style="animation-delay: 0.370s;" />
  <rect x="215" y="20" width="10" height="10" rx="2" fill="#161b22" class="cell" style="animation-delay: 0.300s;" />
  <rect x="215" y="33" width="10" height="10" rx="2" fill="#161b22" class="cell" style="animation-delay: 0.315s;" />
  <rect x="215" y="46" width="10" height="10" rx="2" fill="#161b22" class="cell" style="animation-delay: 0.330s;" />
  <rect x="215" y="59" width="10" height="10" rx="2" fill="#161b22" class="cell" style="animation-delay: 0.345s;" />
  <rect x="215" y="72" width="10" height="10" rx="2" fill="#161b22" class="cell" style="animation-delay: 0.360s;" />
  <rect x="215" y="85" width="10" height="10" rx="2" fill="#161b22" class="cell" style="animation-delay: 0.375s;" />
  <rect x="215" y="98" width="10" height="10" rx="2" fill="#161b22" class="cell" style="animation-delay: 0.390s;" />
  <rect x="228" y="20" width="10" height="10" rx="2" fill="#161b22" class="cell" style="animation-delay: 0.320s;" />
  <rect x="228" y="33" width="10" height="10" rx="2" fill="#161b22" class="cell" style="animation-delay: 0.335s;" />
  <rect x="228" y="46" width="10" height="10" rx="2" fill="#161b22" class="cell" style="animation-delay: 0.350s;" />
  <rect x="228" y="59" width="10" height="10" rx="2" fill="#161b22" class="cell" style="animation-delay: 0.365s;" />
  <rect x="228" y="72" width="10" height="10" rx="2" fill="#161b22" class="cell" style="animation-delay: 0.380s;" />
  <rect x="228" y="85" width="10" height="10" rx="2" fill="#161b22" class="cell" style="animation-delay: 0.395s;" />
  <rect x="228" y="98" width="10" height="10" rx="2" fill="#161b22" class="cell" style="animation-delay: 0.410s;" />
  <rect x="241" y="20" width="10" height="10" rx="2" fill="#161b22" class="cell" style="animation-delay: 0.340s;" />
  <rect x="241" y="33" width="10" height="10" rx="2" fill="#161b22" class="cell" style="animation-delay: 0.355s;" />
  <rect x="241" y="46" width="10" height="10" rx="2" fill="#161b22" class="cell" style="animation-delay: 0.370s;" />
  <rect x="241" y="59" width="10" height="10" rx="2" fill="#161b22" class="cell" style="animation-delay: 0.385s;" />
  <rect x="241" y="72" width="10" height="10" rx="2" fill="#161b22" class="cell" style="animation-delay: 0.400s;" />
  <rect x="241" y="85" width="10" height="10" rx="2" fill="#161b22" class="cell" style="animation-delay: 0.415s;" />
  <rect x="241" y="98" width="10" height="10" rx="2" fill="#161b22" class="cell" style="animation-delay: 0.430s;" />
  <rect x="254" y="20" width="10" height="10" rx="2" fill="#161b22" class="cell" style="animation-delay: 0.360s;" />
  <rect x="254" y="33" width="10" height="10" rx="2" fill="#161b22" class="cell" style="animation-delay: 0.375s;" />
  <rect x="254" y="46" width="10" height="10" rx="2" fill="#161b22" class="cell" style="animation-delay: 0.390s;" />
  <rect x="254" y="59" width="10" height="10" rx="2" fill="#161b22" class="cell" style="animation-delay: 0.405s;" />
  <rect x="254" y="72" width="10" height="10" rx="2" fill="#161b22" class="cell" style="animation-delay: 0.420s;" />
  <rect x="254" y="85" width="10" height="10" rx="2" fill="#161b22" class="cell" style="animation-delay: 0.435s;" />
  <rect x="254" y="98" width="10" height="10" rx="2" fill="#161b22" class="cell" style="animation-delay: 0.450s;" />
  <rect x="267" y="20" width="10" height="10" rx="2" fill="#161b22" class="cell" style="animation-delay: 0.380s;" />
  <rect x="267" y="33" width="10" height="10" rx="2" fill="#161b22" class="cell" style="animation-delay: 0.395s;" />
  <rect x="267" y="46" width="10" height="10" rx="2" fill="#161b22" class="cell" style="animation-delay: 0.410s;" />
  <rect x="267" y="59" width="10" height="10" rx="2" fill="#161b22" class="cell" style="animation-delay: 0.425s;" />
  <rect x="267" y="72" width="10" height="10" rx="2" fill="#161b22" class="cell" style="animation-delay: 0.440s;" />
  <rect x="267" y="85" width="10" height="10" rx="2" fill="#161b22" class="cell" style="animation-delay: 0.455s;" />
  <rect x="267" y="98" width="10" height="10" rx="2" fill="#161b22" class="cell" style="animation-delay: 0.470s;" />
  <rect x="280" y="20" width="10" height="10" rx="2" fill="#161b22" class="cell" style="animation-delay: 0.400s;" />
  <rect x="280" y="33" width="10" height="10" rx="2" fill="#161b22" class="cell" style="animation-delay: 0.415s;" />
  <rect x="280" y="46" width="10" height="10" rx="2" fill="#161b22" class="cell" style="animation-delay: 0.430s;" />
  <rect x="280" y="59" width="10" height="10" rx="2" fill="#161b22" class="cell" style="animation-delay: 0.445s;" />
  <rect x="280" y="72" width="10" height="10" rx="2" fill="#161b22" class="cell" style="animation-delay: 0.460s;" />
  <rect x="280" y="85" width="10" height="10" rx="2" fill="#161b22" class="cell" style="animation-delay: 0.475s;" />
  <rect x="280" y="98" width="10" height="10" rx="2" fill="#161b22" class="cell" style="animation-delay: 0.490s;" />
  <rect x="293" y="20" width="10" height="10" rx="2" fill="#161b22" class="cell" style="animation-delay: 0.420s;" />
  <rect x="293" y="33" width="10" height="10" rx="2" fill="#161b22" class="cell" style="animation-delay: 0.435s;" />
  <rect x="293" y="46" width="10" height="10" rx="2" fill="#161b22" class="cell" style="animation-delay: 0.450s;" />
  <rect x="293" y="59" width="10" height="10" rx="2" fill="#161b22" class="cell" style="animation-delay: 0.465s;" />
  <rect x="293" y="72" width="10" height="10" rx="2" fill="#161b22" class="cell" style="animation-delay: 0.480s;" />
  <rect x="293" y="85" width="10" height="10" rx="2" fill="#161b22" class="cell" style="animation-delay: 0.495s;" />
  <rect x="293" y="98" width="10" height="10" rx="2" fill="#161b22" class="cell" style="animation-delay: 0.510s;" />
  <rect x="306" y="20" width="10" height="10" rx="2" fill="#161b22" class="cell" style="animation-delay: 0.440s;" />
  <rect x="306" y="33" width="10" height="10" rx="2" fill="#161b22" class="cell" style="animation-delay: 0.455s;" />
  <rect x="306" y="46" width="10" height="10" rx="2" fill="#161b22" class="cell" style="animation-delay: 0.470s;" />
  <rect x="306" y="59" width="10" height="10" rx="2" fill="#161b22" class="cell" style="animation-delay: 0.485s;" />
  <rect x="306" y="72" width="10" height="10" rx="2" fill="#161b22" class="cell" style="animation-delay: 0.500s;" />
  <rect x="306" y="85" width="10" height="10" rx="2" fill="#161b22" class="cell" style="animation-delay: 0.515s;" />
  <rect x="306" y="98" width="10" height="10" rx="2" fill="#161b22" class="cell" style="animation-delay: 0.530s;" />
  <rect x="319" y="20" width="10" height="10" rx="2" fill="#161b22" class="cell" style="animation-delay: 0.460s;" />
  <rect x="319" y="33" width="10" height="10" rx="2" fill="#161b22" class="cell" style="animation-delay: 0.475s;" />
  <rect x="319" y="46" width="10" height="10" rx="2" fill="#161b22" class="cell" style="animation-delay: 0.490s;" />
  <rect x="319" y="59" width="10" height="10" rx="2" fill="#161b22" class="cell" style="animation-delay: 0.505s;" />
  <rect x="319" y="72" width="10" height="10" rx="2" fill="#161b22" class="cell" style="animation-delay: 0.520s;" />
  <rect x="319" y="85" width="10" height="10" rx="2" fill="#161b22" class="cell" style="animation-delay: 0.535s;" />
  <rect x="319" y="98" width="10" height="10" rx="2" fill="#161b22" class="cell" style="animation-delay: 0.550s;" />
  <rect x="332" y="20" width="10" height="10" rx="2" fill="#161b22" class="cell" style="animation-delay: 0.480s;" />
  <rect x="332" y="33" width="10" height="10" rx="2" fill="#161b22" class="cell" style="animation-delay: 0.495s;" />
  <rect x="332" y="46" width="10" height="10" rx="2" fill="#161b22" class="cell" style="animation-delay: 0.510s;" />
  <rect x="332" y="59" width="10" height="10" rx="2" fill="#161b22" class="cell" style="animation-delay: 0.525s;" />
  <rect x="332" y="72" width="10" height="10" rx="2" fill="#161b22" class="cell" style="animation-delay: 0.540s;" />
  <rect x="332" y="85" width="10" height="10" rx="2" fill="#161b22" class="cell" style="animation-delay: 0.555s;" />
  <rect x="332" y="98" width="10" height="10" rx="2" fill="#161b22" class="cell" style="animation-delay: 0.570s;" />
  <rect x="345" y="20" width="10" height="10" rx="2" fill="#161b22" class="cell" style="animation-delay: 0.500s;" />
  <rect x="345" y="33" width="10" height="10" rx="2" fill="#161b22" class="cell" style="animation-delay: 0.515s;" />
  <rect x="345" y="46" width="10" height="10" rx="2" fill="#161b22" class="cell" style="animation-delay: 0.530s;" />
  <rect x="345" y="59" width="10" height="10" rx="2" fill="#161b22" class="cell" style="animation-delay: 0.545s;" />
  <rect x="345" y="72" width="10" height="10" rx="2" fill="#161b22" class="cell" style="animation-delay: 0.560s;" />
  <rect x="345" y="85" width="10" height="10" rx="2" fill="#161b22" class="cell" style="animation-delay: 0.575s;" />
  <rect x="345" y="98" width="10" height="10" rx="2" fill="#161b22" class="cell" style="animation-delay: 0.590s;" />
  <rect x="358" y="20" width="10" height="10" rx="2" fill="#161b22" class="cell" style="animation-delay: 0.520s;" />
  <rect x="358" y="33" width="10" height="10" rx="2" fill="#161b22" class="cell" style="animation-delay: 0.535s;" />
  <rect x="358" y="46" width="10" height="10" rx="2" fill="#161b22" class="cell" style="animation-delay: 0.550s;" />
  <rect x="358" y="59" width="10" height="10" rx="2" fill="#161b22" class="cell" style="animation-delay: 0.565s;" />
  <rect x="358" y="72" width="10" height="10" rx="2" fill="#161b22" class="cell" style="animation-delay: 0.580s;" />
  <rect x="358" y="85" width="10" height="10" rx="2" fill="#161b22" class="cell" style="animation-delay: 0.595s;" />
  <rect x="358" y="98" width="10" height="10" rx="2" fill="#161b22" class="cell" style="animation-delay: 0.610s;" />
  <rect x="371" y="20" width="10" height="10" rx="2" fill="#161b22" class="cell" style="animation-delay: 0.540s;" />
  <rect x="371" y="33" width="10" height="10" rx="2" fill="#161b22" class="cell" style="animation-delay: 0.555s;" />
  <rect x="371" y="46" width="10" height="10" rx="2" fill="#161b22" class="cell" style="animation-delay: 0.570s;" />
  <rect x="371" y="59" width="10" height="10" rx="2" fill="#161b22" class="cell" style="animation-delay: 0.585s;" />
  <rect x="371" y="72" width="10" height="10" rx="2" fill="#161b22" class="cell" style="animation-delay: 0.600s;" />
  <rect x="371" y="85" width="10" height="10" rx="2" fill="#161b22" class="cell" style="animation-delay: 0.615s;" />
  <rect x="371" y="98" width="10" height="10" rx="2" fill="#161b22" class="cell" style="animation-delay: 0.630s;" />
  <rect x="384" y="20" width="10" height="10" rx="2" fill="#161b22" class="cell" style="animation-delay: 0.560s;" />
  <rect x="384" y="33" width="10" height="10" rx="2" fill="#161b22" class="cell" style="animation-delay: 0.575s;" />
  <rect x="384" y="46" width="10" height="10" rx="2" fill="#161b22" class="cell" style="animation-delay: 0.590s;" />
  <rect x="384" y="59" width="10" height="10" rx="2" fill="#161b22" class="cell" style="animation-delay: 0.605s;" />
  <rect x="384" y="72" width="10" height="10" rx="2" fill="#161b22" class="cell" style="animation-delay: 0.620s;" />
  <rect x="384" y="85" width="10" height="10" rx="2" fill="#161b22" class="cell" style="animation-delay: 0.635s;" />
  <rect x="384" y="98" width="10" height="10" rx="2" fill="#161b22" class="cell" style="animation-delay: 0.650s;" />
  <rect x="397" y="20" width="10" height="10" rx="2" fill="#161b22" class="cell" style="animation-delay: 0.580s;" />
  <rect x="397" y="33" width="10" height="10" rx="2" fill="#161b22" class="cell" style="animation-delay: 0.595s;" />
  <rect x="397" y="46" width="10" height="10" rx="2" fill="#0e4429" class="cell" style="animation-delay: 0.610s;" />
  <rect x="397" y="59" width="10" height="10" rx="2" fill="#161b22" class="cell" style="animation-delay: 0.625s;" />
  <rect x="397" y="72" width="10" height="10" rx="2" fill="#161b22" class="cell" style="animation-delay: 0.640s;" />
  <rect x="397" y="85" width="10" height="10" rx="2" fill="#161b22" class="cell" style="animation-delay: 0.655s;" />
  <rect x="397" y="98" width="10" height="10" rx="2" fill="#161b22" class="cell" style="animation-delay: 0.670s;" />
  <rect x="410" y="20" width="10" height="10" rx="2" fill="#161b22" class="cell" style="animation-delay: 0.600s;" />
  <rect x="410" y="33" width="10" height="10" rx="2" fill="#161b22" class="cell" style="animation-delay: 0.615s;" />
  <rect x="410" y="46" width="10" height="10" rx="2" fill="#39d353" class="cell" style="animation-delay: 0.630s;" />
  <rect x="410" y="59" width="10" height="10" rx="2" fill="#161b22" class="cell" style="animation-delay: 0.645s;" />
  <rect x="410" y="72" width="10" height="10" rx="2" fill="#161b22" class="cell" style="animation-delay: 0.660s;" />
  <rect x="410" y="85" width="10" height="10" rx="2" fill="#161b22" class="cell" style="animation-delay: 0.675s;" />
  <rect x="410" y="98" width="10" height="10" rx="2" fill="#161b22" class="cell" style="animation-delay: 0.690s;" />
  <rect x="423" y="20" width="10" height="10" rx="2" fill="#161b22" class="cell" style="animation-delay: 0.620s;" />
  <rect x="423" y="33" width="10" height="10" rx="2" fill="#161b22" class="cell" style="animation-delay: 0.635s;" />
  <rect x="423" y="46" width="10" height="10" rx="2" fill="#161b22" class="cell" style="animation-delay: 0.650s;" />
  <rect x="423" y="59" width="10" height="10" rx="2" fill="#161b22" class="cell" style="animation-delay: 0.665s;" />
  <rect x="423" y="72" width="10" height="10" rx="2" fill="#0e4429" class="cell" style="animation-delay: 0.680s;" />
  <rect x="423" y="85" width="10" height="10" rx="2" fill="#161b22" class="cell" style="animation-delay: 0.695s;" />
  <rect x="423" y="98" width="10" height="10" rx="2" fill="#0e4429" class="cell" style="animation-delay: 0.710s;" />
  <rect x="436" y="20" width="10" height="10" rx="2" fill="#0e4429" class="cell" style="animation-delay: 0.640s;" />
  <rect x="436" y="33" width="10" height="10" rx="2" fill="#26a641" class="cell" style="animation-delay: 0.655s;" />
  <rect x="436" y="46" width="10" height="10" rx="2" fill="#161b22" class="cell" style="animation-delay: 0.670s;" />
  <rect x="436" y="59" width="10" height="10" rx="2" fill="#0e4429" class="cell" style="animation-delay: 0.685s;" />
  <rect x="436" y="72" width="10" height="10" rx="2" fill="#0e4429" class="cell" style="animation-delay: 0.700s;" />
  <rect x="436" y="85" width="10" height="10" rx="2" fill="#161b22" class="cell" style="animation-delay: 0.715s;" />
  <rect x="436" y="98" width="10" height="10" rx="2" fill="#0e4429" class="cell" style="animation-delay: 0.730s;" />
  <rect x="449" y="20" width="10" height="10" rx="2" fill="#006d32" class="cell" style="animation-delay: 0.660s;" />
  <rect x="449" y="33" width="10" height="10" rx="2" fill="#0e4429" class="cell" style="animation-delay: 0.675s;" />
  <rect x="449" y="46" width="10" height="10" rx="2" fill="#006d32" class="cell" style="animation-delay: 0.690s;" />
  <rect x="449" y="59" width="10" height="10" rx="2" fill="#161b22" class="cell" style="animation-delay: 0.705s;" />
  <rect x="449" y="72" width="10" height="10" rx="2" fill="#161b22" class="cell" style="animation-delay: 0.720s;" />
  <rect x="449" y="85" width="10" height="10" rx="2" fill="#161b22" class="cell" style="animation-delay: 0.735s;" />
  <rect x="449" y="98" width="10" height="10" rx="2" fill="#161b22" class="cell" style="animation-delay: 0.750s;" />
  <rect x="462" y="20" width="10" height="10" rx="2" fill="#161b22" class="cell" style="animation-delay: 0.680s;" />
  <rect x="462" y="33" width="10" height="10" rx="2" fill="#161b22" class="cell" style="animation-delay: 0.695s;" />
  <rect x="462" y="46" width="10" height="10" rx="2" fill="#161b22" class="cell" style="animation-delay: 0.710s;" />
  <rect x="462" y="59" width="10" height="10" rx="2" fill="#161b22" class="cell" style="animation-delay: 0.725s;" />
  <rect x="462" y="72" width="10" height="10" rx="2" fill="#161b22" class="cell" style="animation-delay: 0.740s;" />
  <rect x="462" y="85" width="10" height="10" rx="2" fill="#161b22" class="cell" style="animation-delay: 0.755s;" />
  <rect x="462" y="98" width="10" height="10" rx="2" fill="#161b22" class="cell" style="animation-delay: 0.770s;" />
  <rect x="475" y="20" width="10" height="10" rx="2" fill="#161b22" class="cell" style="animation-delay: 0.700s;" />
  <rect x="475" y="33" width="10" height="10" rx="2" fill="#161b22" class="cell" style="animation-delay: 0.715s;" />
  <rect x="475" y="46" width="10" height="10" rx="2" fill="#161b22" class="cell" style="animation-delay: 0.730s;" />
  <rect x="475" y="59" width="10" height="10" rx="2" fill="#161b22" class="cell" style="animation-delay: 0.745s;" />
  <rect x="475" y="72" width="10" height="10" rx="2" fill="#161b22" class="cell" style="animation-delay: 0.760s;" />
  <rect x="475" y="85" width="10" height="10" rx="2" fill="#161b22" class="cell" style="animation-delay: 0.775s;" />
  <rect x="475" y="98" width="10" height="10" rx="2" fill="#161b22" class="cell" style="animation-delay: 0.790s;" />
  <rect x="488" y="20" width="10" height="10" rx="2" fill="#161b22" class="cell" style="animation-delay: 0.720s;" />
  <rect x="488" y="33" width="10" height="10" rx="2" fill="#161b22" class="cell" style="animation-delay: 0.735s;" />
  <rect x="488" y="46" width="10" height="10" rx="2" fill="#161b22" class="cell" style="animation-delay: 0.750s;" />
  <rect x="488" y="59" width="10" height="10" rx="2" fill="#161b22" class="cell" style="animation-delay: 0.765s;" />
  <rect x="488" y="72" width="10" height="10" rx="2" fill="#161b22" class="cell" style="animation-delay: 0.780s;" />
  <rect x="488" y="85" width="10" height="10" rx="2" fill="#161b22" class="cell" style="animation-delay: 0.795s;" />
  <rect x="488" y="98" width="10" height="10" rx="2" fill="#161b22" class="cell" style="animation-delay: 0.810s;" />
  <rect x="501" y="20" width="10" height="10" rx="2" fill="#161b22" class="cell" style="animation-delay: 0.740s;" />
  <rect x="501" y="33" width="10" height="10" rx="2" fill="#161b22" class="cell" style="animation-delay: 0.755s;" />
  <rect x="501" y="46" width="10" height="10" rx="2" fill="#161b22" class="cell" style="animation-delay: 0.770s;" />
  <rect x="501" y="59" width="10" height="10" rx="2" fill="#161b22" class="cell" style="animation-delay: 0.785s;" />
  <rect x="501" y="72" width="10" height="10" rx="2" fill="#161b22" class="cell" style="animation-delay: 0.800s;" />
  <rect x="501" y="85" width="10" height="10" rx="2" fill="#161b22" class="cell" style="animation-delay: 0.815s;" />
  <rect x="501" y="98" width="10" height="10" rx="2" fill="#161b22" class="cell" style="animation-delay: 0.830s;" />
  <rect x="514" y="20" width="10" height="10" rx="2" fill="#161b22" class="cell" style="animation-delay: 0.760s;" />
  <rect x="514" y="33" width="10" height="10" rx="2" fill="#161b22" class="cell" style="animation-delay: 0.775s;" />
  <rect x="514" y="46" width="10" height="10" rx="2" fill="#161b22" class="cell" style="animation-delay: 0.790s;" />
  <rect x="514" y="59" width="10" height="10" rx="2" fill="#161b22" class="cell" style="animation-delay: 0.805s;" />
  <rect x="514" y="72" width="10" height="10" rx="2" fill="#161b22" class="cell" style="animation-delay: 0.820s;" />
  <rect x="514" y="85" width="10" height="10" rx="2" fill="#161b22" class="cell" style="animation-delay: 0.835s;" />
  <rect x="514" y="98" width="10" height="10" rx="2" fill="#161b22" class="cell" style="animation-delay: 0.850s;" />
  <rect x="527" y="20" width="10" height="10" rx="2" fill="#161b22" class="cell" style="animation-delay: 0.780s;" />
  <rect x="527" y="33" width="10" height="10" rx="2" fill="#161b22" class="cell" style="animation-delay: 0.795s;" />
  <rect x="527" y="46" width="10" height="10" rx="2" fill="#161b22" class="cell" style="animation-delay: 0.810s;" />
  <rect x="527" y="59" width="10" height="10" rx="2" fill="#161b22" class="cell" style="animation-delay: 0.825s;" />
  <rect x="527" y="72" width="10" height="10" rx="2" fill="#161b22" class="cell" style="animation-delay: 0.840s;" />
  <rect x="527" y="85" width="10" height="10" rx="2" fill="#161b22" class="cell" style="animation-delay: 0.855s;" />
  <rect x="527" y="98" width="10" height="10" rx="2" fill="#0e4429" class="cell" style="animation-delay: 0.870s;" />
  <rect x="540" y="20" width="10" height="10" rx="2" fill="#161b22" class="cell" style="animation-delay: 0.800s;" />
  <rect x="540" y="33" width="10" height="10" rx="2" fill="#161b22" class="cell" style="animation-delay: 0.815s;" />
  <rect x="540" y="46" width="10" height="10" rx="2" fill="#161b22" class="cell" style="animation-delay: 0.830s;" />
  <rect x="540" y="59" width="10" height="10" rx="2" fill="#161b22" class="cell" style="animation-delay: 0.845s;" />
  <rect x="540" y="72" width="10" height="10" rx="2" fill="#161b22" class="cell" style="animation-delay: 0.860s;" />
  <rect x="540" y="85" width="10" height="10" rx="2" fill="#161b22" class="cell" style="animation-delay: 0.875s;" />
  <rect x="540" y="98" width="10" height="10" rx="2" fill="#161b22" class="cell" style="animation-delay: 0.890s;" />
  <rect x="553" y="20" width="10" height="10" rx="2" fill="#161b22" class="cell" style="animation-delay: 0.820s;" />
  <rect x="553" y="33" width="10" height="10" rx="2" fill="#161b22" class="cell" style="animation-delay: 0.835s;" />
  <rect x="553" y="46" width="10" height="10" rx="2" fill="#161b22" class="cell" style="animation-delay: 0.850s;" />
  <rect x="553" y="59" width="10" height="10" rx="2" fill="#161b22" class="cell" style="animation-delay: 0.865s;" />
  <rect x="553" y="72" width="10" height="10" rx="2" fill="#161b22" class="cell" style="animation-delay: 0.880s;" />
  <rect x="553" y="85" width="10" height="10" rx="2" fill="#161b22" class="cell" style="animation-delay: 0.895s;" />
  <rect x="553" y="98" width="10" height="10" rx="2" fill="#161b22" class="cell" style="animation-delay: 0.910s;" />
  <rect x="566" y="20" width="10" height="10" rx="2" fill="#161b22" class="cell" style="animation-delay: 0.840s;" />
  <rect x="566" y="33" width="10" height="10" rx="2" fill="#161b22" class="cell" style="animation-delay: 0.855s;" />
  <rect x="566" y="46" width="10" height="10" rx="2" fill="#161b22" class="cell" style="animation-delay: 0.870s;" />
  <rect x="566" y="59" width="10" height="10" rx="2" fill="#161b22" class="cell" style="animation-delay: 0.885s;" />
  <rect x="566" y="72" width="10" height="10" rx="2" fill="#161b22" class="cell" style="animation-delay: 0.900s;" />
  <rect x="566" y="85" width="10" height="10" rx="2" fill="#161b22" class="cell" style="animation-delay: 0.915s;" />
  <rect x="566" y="98" width="10" height="10" rx="2" fill="#161b22" class="cell" style="animation-delay: 0.930s;" />
  <rect x="579" y="20" width="10" height="10" rx="2" fill="#161b22" class="cell" style="animation-delay: 0.860s;" />
  <rect x="579" y="33" width="10" height="10" rx="2" fill="#161b22" class="cell" style="animation-delay: 0.875s;" />
  <rect x="579" y="46" width="10" height="10" rx="2" fill="#161b22" class="cell" style="animation-delay: 0.890s;" />
  <rect x="579" y="59" width="10" height="10" rx="2" fill="#161b22" class="cell" style="animation-delay: 0.905s;" />
  <rect x="579" y="72" width="10" height="10" rx="2" fill="#161b22" class="cell" style="animation-delay: 0.920s;" />
  <rect x="579" y="85" width="10" height="10" rx="2" fill="#161b22" class="cell" style="animation-delay: 0.935s;" />
  <rect x="579" y="98" width="10" height="10" rx="2" fill="#161b22" class="cell" style="animation-delay: 0.950s;" />
  <rect x="592" y="20" width="10" height="10" rx="2" fill="#161b22" class="cell" style="animation-delay: 0.880s;" />
  <rect x="592" y="33" width="10" height="10" rx="2" fill="#161b22" class="cell" style="animation-delay: 0.895s;" />
  <rect x="592" y="46" width="10" height="10" rx="2" fill="#161b22" class="cell" style="animation-delay: 0.910s;" />
  <rect x="592" y="59" width="10" height="10" rx="2" fill="#161b22" class="cell" style="animation-delay: 0.925s;" />
  <rect x="592" y="72" width="10" height="10" rx="2" fill="#161b22" class="cell" style="animation-delay: 0.940s;" />
  <rect x="592" y="85" width="10" height="10" rx="2" fill="#161b22" class="cell" style="animation-delay: 0.955s;" />
  <rect x="592" y="98" width="10" height="10" rx="2" fill="#161b22" class="cell" style="animation-delay: 0.970s;" />
  <rect x="605" y="20" width="10" height="10" rx="2" fill="#161b22" class="cell" style="animation-delay: 0.900s;" />
  <rect x="605" y="33" width="10" height="10" rx="2" fill="#161b22" class="cell" style="animation-delay: 0.915s;" />
  <rect x="605" y="46" width="10" height="10" rx="2" fill="#161b22" class="cell" style="animation-delay: 0.930s;" />
  <rect x="605" y="59" width="10" height="10" rx="2" fill="#161b22" class="cell" style="animation-delay: 0.945s;" />
  <rect x="605" y="72" width="10" height="10" rx="2" fill="#161b22" class="cell" style="animation-delay: 0.960s;" />
  <rect x="605" y="85" width="10" height="10" rx="2" fill="#161b22" class="cell" style="animation-delay: 0.975s;" />
  <rect x="605" y="98" width="10" height="10" rx="2" fill="#161b22" class="cell" style="animation-delay: 0.990s;" />
  <rect x="618" y="20" width="10" height="10" rx="2" fill="#161b22" class="cell" style="animation-delay: 0.920s;" />
  <rect x="618" y="33" width="10" height="10" rx="2" fill="#161b22" class="cell" style="animation-delay: 0.935s;" />
  <rect x="618" y="46" width="10" height="10" rx="2" fill="#161b22" class="cell" style="animation-delay: 0.950s;" />
  <rect x="618" y="59" width="10" height="10" rx="2" fill="#161b22" class="cell" style="animation-delay: 0.965s;" />
  <rect x="618" y="72" width="10" height="10" rx="2" fill="#161b22" class="cell" style="animation-delay: 0.980s;" />
  <rect x="618" y="85" width="10" height="10" rx="2" fill="#161b22" class="cell" style="animation-delay: 0.995s;" />
  <rect x="618" y="98" width="10" height="10" rx="2" fill="#161b22" class="cell" style="animation-delay: 1.010s;" />
  <rect x="631" y="20" width="10" height="10" rx="2" fill="#161b22" class="cell" style="animation-delay: 0.940s;" />
  <rect x="631" y="33" width="10" height="10" rx="2" fill="#161b22" class="cell" style="animation-delay: 0.955s;" />
  <rect x="631" y="46" width="10" height="10" rx="2" fill="#161b22" class="cell" style="animation-delay: 0.970s;" />
  <rect x="631" y="59" width="10" height="10" rx="2" fill="#161b22" class="cell" style="animation-delay: 0.985s;" />
  <rect x="631" y="72" width="10" height="10" rx="2" fill="#161b22" class="cell" style="animation-delay: 1.000s;" />
  <rect x="631" y="85" width="10" height="10" rx="2" fill="#161b22" class="cell" style="animation-delay: 1.015s;" />
  <rect x="631" y="98" width="10" height="10" rx="2" fill="#161b22" class="cell" style="animation-delay: 1.030s;" />
  <rect x="644" y="20" width="10" height="10" rx="2" fill="#161b22" class="cell" style="animation-delay: 0.960s;" />
  <rect x="644" y="33" width="10" height="10" rx="2" fill="#161b22" class="cell" style="animation-delay: 0.975s;" />
  <rect x="644" y="46" width="10" height="10" rx="2" fill="#161b22" class="cell" style="animation-delay: 0.990s;" />
  <rect x="644" y="59" width="10" height="10" rx="2" fill="#161b22" class="cell" style="animation-delay: 1.005s;" />
  <rect x="644" y="72" width="10" height="10" rx="2" fill="#161b22" class="cell" style="animation-delay: 1.020s;" />
  <rect x="644" y="85" width="10" height="10" rx="2" fill="#161b22" class="cell" style="animation-delay: 1.035s;" />
  <rect x="644" y="98" width="10" height="10" rx="2" fill="#161b22" class="cell" style="animation-delay: 1.050s;" />
  <rect x="657" y="20" width="10" height="10" rx="2" fill="#161b22" class="cell" style="animation-delay: 0.980s;" />
  <rect x="657" y="33" width="10" height="10" rx="2" fill="#161b22" class="cell" style="animation-delay: 0.995s;" />
  <rect x="657" y="46" width="10" height="10" rx="2" fill="#161b22" class="cell" style="animation-delay: 1.010s;" />
  <rect x="657" y="59" width="10" height="10" rx="2" fill="#161b22" class="cell" style="animation-delay: 1.025s;" />
  <rect x="657" y="72" width="10" height="10" rx="2" fill="#161b22" class="cell" style="animation-delay: 1.040s;" />
  <rect x="657" y="85" width="10" height="10" rx="2" fill="#161b22" class="cell" style="animation-delay: 1.055s;" />
  <rect x="657" y="98" width="10" height="10" rx="2" fill="#161b22" class="cell" style="animation-delay: 1.070s;" />
  <rect x="670" y="20" width="10" height="10" rx="2" fill="#161b22" class="cell" style="animation-delay: 1.000s;" />
  <rect x="670" y="33" width="10" height="10" rx="2" fill="#161b22" class="cell" style="animation-delay: 1.015s;" />
  <rect x="670" y="46" width="10" height="10" rx="2" fill="#161b22" class="cell" style="animation-delay: 1.030s;" />
  <rect x="670" y="59" width="10" height="10" rx="2" fill="#161b22" class="cell" style="animation-delay: 1.045s;" />
  <rect x="670" y="72" width="10" height="10" rx="2" fill="#161b22" class="cell" style="animation-delay: 1.060s;" />
  <rect x="670" y="85" width="10" height="10" rx="2" fill="#161b22" class="cell" style="animation-delay: 1.075s;" />
  <rect x="670" y="98" width="10" height="10" rx="2" fill="#39d353" class="cell" style="animation-delay: 1.090s;" />
  <rect x="683" y="20" width="10" height="10" rx="2" fill="#161b22" class="cell" style="animation-delay: 1.020s;" />
  <rect x="683" y="33" width="10" height="10" rx="2" fill="#161b22" class="cell" style="animation-delay: 1.035s;" />
  <rect x="683" y="46" width="10" height="10" rx="2" fill="#161b22" class="cell" style="animation-delay: 1.050s;" />
  <rect x="683" y="59" width="10" height="10" rx="2" fill="#161b22" class="cell" style="animation-delay: 1.065s;" />
  <rect x="683" y="72" width="10" height="10" rx="2" fill="#161b22" class="cell" style="animation-delay: 1.080s;" />
  <rect x="683" y="85" width="10" height="10" rx="2" fill="#161b22" class="cell" style="animation-delay: 1.095s;" />
  <rect x="683" y="98" width="10" height="10" rx="2" fill="#0e4429" class="cell" style="animation-delay: 1.110s;" />
  <rect x="696" y="20" width="10" height="10" rx="2" fill="#0e4429" class="cell" style="animation-delay: 1.040s;" />
  <rect x="696" y="33" width="10" height="10" rx="2" fill="#0e4429" class="cell" style="animation-delay: 1.055s;" />
  <rect x="696" y="46" width="10" height="10" rx="2" fill="#161b22" class="cell" style="animation-delay: 1.070s;" />
  <text x="20" y="135" class="text">44 contributions in the last year</text>
  <text x="579" y="135" class="text">Less</text>
  <rect x="614" y="126" width="10" height="10" rx="2" fill="#161b22" />
  <rect x="627" y="126" width="10" height="10" rx="2" fill="#0e4429" />
  <rect x="640" y="126" width="10" height="10" rx="2" fill="#006d32" />
  <rect x="653" y="126" width="10" height="10" rx="2" fill="#26a641" />
  <rect x="666" y="126" width="10" height="10" rx="2" fill="#39d353" />
  <rect x="679" y="126" width="10" height="10" rx="2" fill="#69f0a0" />
  <text x="697" y="135" class="text">More</text>
</svg>